<svg xmlns="http://www.w3.org/2000/svg" xmlns:xlink="http://www.w3.org/1999/xlink" width="20" height="20">


    <svg id="read" t="1526815245628" class="icon" style="" viewBox="0 0 1024 1024" version="1.1" xmlns="http://www.w3.org/2000/svg" p-id="1974" xmlns:xlink="http://www.w3.org/1999/xlink" width="20" height="20">
        <!--背景色-->
        <!--<rect width="100%" height="100%" fill="red" />-->
        <path fill="#ccc" d="M957.971679 501.685074c-6.928806-9.940396-172.653245-243.818051-441.060321-243.818051-268.409123 0-434.131515 233.877655-441.061344 243.818051-10.730389 15.408945-10.730389 35.877115 0 51.284013 6.928806 9.94142 172.652222 243.819075 441.061344 243.819075 268.407076 0 434.130492-233.877655 441.060321-243.819075C968.701045 537.561166 968.701045 517.092995 957.971679 501.685074zM516.911358 751.877299c-248.028956 0-404.191622-224.550219-404.191622-224.550219s156.161642-224.551242 404.191622-224.551242c248.028956 0 404.190599 224.551242 404.190599 224.551242S764.940314 751.877299 516.911358 751.877299z" p-id="1975">

        </path>
        <path fill="#ccc" d="M516.911358 347.687724c-99.206466 0-179.641403 80.434937-179.641403 179.64038s80.434937 179.64038 179.641403 179.64038c99.205443 0 179.639357-80.434937 179.639357-179.64038S616.116801 347.687724 516.911358 347.687724zM516.911358 662.057621c-74.2951 0-134.730541-60.435441-134.730541-134.729517s60.435441-134.730541 134.730541-134.730541c74.294077 0 134.728494 60.435441 134.728494 134.730541S591.205435 662.057621 516.911358 662.057621z" p-id="1976">

        </path>
    </svg>


    <svg fill="#ccc" id="share" t="1526820954465" class="icon" style="" viewBox="0 0 1024 1024" version="1.1" xmlns="http://www.w3.org/2000/svg" p-id="2720" xmlns:xlink="http://www.w3.org/1999/xlink" width="16" height="16"><defs><style type="text/css"></style></defs><path d="M710.558242 462.359416h173.918051c13.608949 0 24.64019 11.04352 24.64019 24.65554v397.445987c0 13.617136-11.226692 24.65554-24.64019 24.65554H139.523707c-13.608949 0-24.64019-11.04352-24.64019-24.65554V487.015979c0-13.617136 11.227716-24.65554 24.64019-24.655539h173.918051c13.707187 0 24.820292-11.112082 24.820292-24.820292 0-13.707187-11.113105-24.820292-24.820292-24.820292H114.875331c-27.545356 0-49.632397 22.125927-49.632398 49.420573v447.196065c0 27.338648 22.221094 49.420573 49.632398 49.420573h794.248315c27.545356 0 49.633421-22.125927 49.633421-49.420573V462.140429c0-27.338648-22.222117-49.420573-49.633421-49.420573H710.558242c-13.707187 0-24.820292 11.113105-24.820292 24.820292s11.113105 24.819269 24.820292 24.819268zM516.65502 65.678862a25.212218 25.212218 0 0 0-9.858532 0.103354c-7.902994-1.678222-16.420995 0.560772-22.534226 6.674003L306.080094 250.638387c-9.599635 9.599635-9.577123 25.293059 0.115633 34.984792 9.760295 9.761318 25.356504 9.744945 34.985816 0.115634l146.000212-146.000212V785.063119c0 13.670348 11.112082 24.774243 24.820292 24.774243 13.802354 0 24.820292-11.091616 24.820291-24.774243V140.986011l144.751779 144.752802c9.599635 9.599635 25.293059 9.578146 34.985815-0.115634 9.760295-9.760295 9.744945-25.356504 0.115634-34.984792L538.491351 72.456219c-5.910617-5.909593-14.129812-8.173147-21.836331-6.777357z" p-id="2721"></path></svg>
    <svg id="note" t="1526913153073" class="icon" style="" viewBox="0 0 1024 1024" version="1.1" xmlns="http://www.w3.org/2000/svg" p-id="2005" xmlns:xlink="http://www.w3.org/1999/xlink" width="18" height="18"><defs><style type="text/css"></style></defs><path d="M511.219 58.483l-227.213 227.313h-161.038c-41.846 0-75.781 33.935-75.781 75.781v303.097c0 41.882 33.935 75.782 75.781 75.782h161.037l227.213 227.377c41.845 0 75.748-33.934 75.748-75.78v-757.789c0.001-41.846-33.901-75.781-75.746-75.781zM511.219 889.427l-198.83-219.372h-189.421v-303.093h189.421l198.83-219.402v741.868z" p-id="2006" fill="#ffffff"></path><path d="M960.31 546.395c7.483 0 13.534-14.892 13.534-33.239s-6.051-33.239-13.534-33.239h-94.755c-7.482 0-13.533 14.889-13.533 33.239 0 18.347 6.051 33.239 13.533 33.239h94.755z" p-id="2007" fill="#ffffff"></path><path d="M970.582 116.844c6.484-3.743 4.277-19.663-4.897-35.552s-21.858-25.759-28.341-22.017l-82.059 47.376c-6.483 3.743-4.277 19.663 4.897 35.552s21.859 25.758 28.342 22.016l82.058-47.375z" p-id="2008" fill="#ffffff"></path><path d="M970.582 909.47c6.484 3.743 4.277 19.662-4.897 35.553-9.174 15.888-21.858 25.759-28.341 22.016l-82.059-47.376c-6.483-3.743-4.277-19.662 4.897-35.552 9.174-15.889 21.859-25.758 28.342-22.016l82.058 47.375z" p-id="2009" fill="#ffffff"></path><path d="M640.286 683.412c-6.756-18.186-4.889-35.436 13.299-42.194 45.93-21.204 67.853-62.464 73.459-114.215 6.541-60.379-22.355-115.869-72.24-138.725-16.317-10.496-23.073-28.677-12.579-44.995 10.497-16.316 28.683-23.073 44.995-12.579 73.893 42.911 118.17 117.522 108.828 203.777-7.477 69.002-49.452 134.269-113.569 162.23-14.983 8.481-35.070 2.914-42.193-13.294z" p-id="2010" fill="#ffffff"></path></svg>
    <use xlink:href="#read"/>
    <use xlink:href="#share"/>
    <use xlink:href="#note"/>
</svg>